<?xml version="1.0" encoding="utf-8"?>
<!-- Generator: Adobe Illustrator 18.0.0, SVG Export Plug-In . SVG Version: 6.00 Build 0)  -->
<!DOCTYPE svg PUBLIC "-//W3C//DTD SVG 1.1//EN" "http://www.w3.org/Graphics/SVG/1.1/DTD/svg11.dtd">
<svg version="1.1" id="Calque_1" xmlns="http://www.w3.org/2000/svg" xmlns:xlink="http://www.w3.org/1999/xlink" x="0px" y="0px"
	 viewBox="0 0 24 24" enable-background="new 0 0 24 24" xml:space="preserve">
<path fill="none" d="M0,0h24v24H0V0z"/>
<path d="M7,14c-1.7,0-3,1.3-3,3c0,1.3-1.2,2-2,2c0.9,1.2,2.5,2,4,2c2.2,0,4-1.8,4-4C10,15.3,8.7,14,7,14z M20.7,4.6l-1.3-1.3
	c-0.4-0.4-1-0.4-1.4,0l-9,9l2.8,2.8l9-9C21.1,5.7,21.1,5,20.7,4.6z"/>
</svg>
