<?xml version="1.0" encoding="utf-8"?>
<!-- Generator: Adobe Illustrator 18.0.0, SVG Export Plug-In . SVG Version: 6.00 Build 0)  -->
<!DOCTYPE svg PUBLIC "-//W3C//DTD SVG 1.1//EN" "http://www.w3.org/Graphics/SVG/1.1/DTD/svg11.dtd">
<svg version="1.1" id="Logo" xmlns="http://www.w3.org/2000/svg" xmlns:xlink="http://www.w3.org/1999/xlink" x="0px" y="0px"
	 viewBox="460.1 220.1 359.7 359.7" enable-background="new 460.1 220.1 359.7 359.7" xml:space="preserve">
<polygon id="triangle" fill="#2ECC71" points="460.1,316.5 819.9,220.1 723.5,579.9 "/>
<path id="LM" fill="#FFFFFF" d="M691.9,452.8c-2.9,0-5.5-0.7-7.5-2.1c-1.2-0.9-3.1-2.3-5.5-4.4l-2.4-2l0.4-3.1
	c0.1-1.2,0.4-3.2,0.7-6c0.3-2.8,0.5-5.7,0.8-8.8c0.3-3.1,0.5-5.7,0.7-8.1c0.1-1.9,0.3-3.1,0.3-3.6v-0.4c0.4-4.4,0.7-8.1,0.8-11.2
	c0.1-3.1,0.3-5.9,0.4-8.4c0.1-2.4,0.3-4.8,0.3-7.1s0.1-5.1,0.1-8.1v-0.3c0.1-2.8,0.3-5.2,0.3-7.2s0.1-4.4,0.1-7.2
	c0-0.4,0-2.4,0.1-6.1c0.1-3.6,0.1-7.9,0.1-12.5c0-4.5-0.1-9.2-0.3-14c0-0.7,0-1.3-0.1-2c-0.1,0.1-0.3,0.4-0.5,0.5
	c-2.8,3.1-5.6,6.8-8.3,11.1c-2.7,4.4-5.3,9.1-7.7,14s-4.5,9.6-6.1,13.9c-1.2,3.2-10.5,21.9-13.3,27.6c-3.1,6.1-6,12-8.3,16.5
	c-4.3,8.4-4.8,9.5-6.7,10.1c-4.4,2.7-16,8.3-23.9,9.9c-3.1,0.7-6.3,1.2-9.1,1.7c-3.7,0.7-7.6,1.3-9.2,1.9c-3.3,1.1-6.3,1.7-8.7,2.1
	l-0.7,0.1c-5.5,0.3-9.9,0-13.3-0.7c-4.8-0.9-8.8-4.1-11.9-9.6l-0.5-0.8l-0.1-0.9c-0.5-3.1-0.7-6.1-0.3-9.3c0.4-2.8,1.1-5.9,2.1-9.3
	c0.9-3.3,2.1-6.9,3.5-10.8c1.3-3.9,2.9-8.3,4.7-13.3c5.1-13.7,9.2-25.3,12.4-34.8c3.1-9.5,5.5-17.2,7.2-23.2
	c1.7-6,2.8-10.5,3.5-13.5c0.7-3.2,1.1-5.3,1.3-6.4l0.9-4.3l4.4-0.3c0.5,0,1.1-0.1,1.6-0.3c1.2-0.3,2.4-0.5,3.7-0.5
	c1.3,0,2.8,0.1,4.3,0.4c1.6,0.4,3.3,1.1,5.2,2.3l3.5,2.1l-0.8,4c-0.1,0.9-0.7,2.5-2.3,7.2c-1.2,3.2-2.7,7.2-4.4,12l-5.9,15.7
	c-2.1,5.9-4.4,11.9-6.7,18c-2.3,6-4.4,12.1-6.7,18.3c-2.1,6-4,11.6-5.5,16.7c-1.6,5.1-2.8,9.7-3.7,13.6c-0.8,3.1-1.1,5.1-1.1,6.1
	c0.3,0.4,0.7,0.5,1.2,0.7c1.9,0.5,4,0.7,6.5,0.4c0.8-0.1,1.7-0.1,2.8-0.3c3.5-0.3,8.8-0.7,16-2c7.9-1.5,16-4.4,19.3-5.9
	c3.3-5.3,14.3-30.3,19.7-42.5c2.5-5.6,4.7-10.4,6-13.2c2.3-4.9,4.9-10.3,7.7-15.6c2.8-5.3,5.7-10.1,8.7-14.3
	c3.6-5.1,6.7-8.8,9.5-11.5c0.9-0.9,1.5-1.5,1.7-2c0.5-0.7,1.3-1.6,2.7-2.5c2.1-1.3,4.9-2.4,7.7-3.1c2.9-0.7,6.1-0.4,9.1,0.7
	c2.9,0.9,5.2,3.2,6.7,6.8c0.9,2.3,1.7,4.9,2.3,7.6c0.5,2.7,0.9,5.3,1.1,8c0.1,2.7,0.3,4.4,0.3,5.6c0,3.6-0.1,6.9-0.3,10.1
	c0,0.7-0.1,1.5-0.1,2.1c0.8-1.2,1.7-2.3,2.7-3.3c3.1-3.7,8.8-7.3,10.5-7.7c1.6-0.4,1.6-0.4,1.6-0.4c0.4,0,0.8,0,1.2,0
	c5.6,0,9.6,3.1,11.3,8.5c1.1,3.5,1.9,8,2.3,13.1v0.5c0,0,0,0.7,0.1,3.2c0.1,1.9,0.3,4.1,0.5,6.5c0.1,2.1,0.4,4.5,0.5,6.8
	c1.2-1.6,2.3-3.2,3.5-4.7c2.3-2.9,4.7-5.5,7.1-7.6c2.9-2.5,5.9-4.1,8.9-4.9h0.1c0.8-0.1,1.6-0.3,2.3-0.3c2.3,0,6.7,0.8,9.7,6.1
	c1.9,3.1,3.2,7.1,4.1,12c0.8,4.4,1.6,9.5,2,15.1c0.5,5.3,1.1,10.7,1.6,15.7c0.5,4.9,1.2,9.6,1.9,13.9c0.8,4.5,1.7,6.7,2.4,7.7l3.9,6
	l-6.7,2.5c-1.5,0.5-2.9,0.8-4.3,0.8l0,0c-2.4,0-4.5-0.8-6.4-2.3c-1.1-0.8-2.3-1.6-3.6-2.3l-2.1-1.1l-0.8-2.3
	c-0.5-1.7-0.9-4.3-1.2-7.9c-0.1-2.8-0.4-5.9-0.7-9.2l-0.1-0.9c-0.3-3.9-0.5-7.7-0.8-11.9c-0.3-4-0.7-7.7-1.1-10.9
	c-0.3-2-0.5-3.7-0.9-5.2c-2.1,2.3-3.9,4.4-5.3,6.5c-2.3,3.2-4.1,6.1-5.5,8.7c-1.3,2.4-2.3,4.5-2.8,6.1c-0.7,2-1.1,3.2-1.2,3.6
	l-0.1,0.1c-0.9,2.4-1.9,5.7-2.8,10.1c-0.9,4.4-1.5,9.1-1.7,14l-0.3,4.3l-4.1,1.1c-0.9,0.3-1.9,0.4-2.7,0.4c-2.9,0-5.5-1.6-6.7-4.1
	c-0.1-0.1-0.4-0.4-0.9-0.9l-2.5-2.3l0.7-3.2c0-0.3,0.1-1.3,0.3-4.8c0.1-3.2,0-7.2,0-11.9c-0.1-4.8-0.3-10-0.4-15.5
	c-0.3-5.5-0.5-10.9-0.8-16.1c-0.3-4.5-0.7-8.8-1.2-12.7c-0.8,1.2-1.6,2.4-2.3,3.6c-1.2,2.1-1.5,2.8-1.5,2.8l-0.1,0.4
	c-2.7,6.4-4.8,11.9-6.1,16.3c-1.3,4.3-2.4,7.9-2.9,10.8c-0.5,2.9-0.9,5.3-1.1,7.2c-0.1,2.4-0.4,4.7-0.8,7.1l-0.7,8.4
	c-0.1,2.3-0.3,4.5-0.3,6.8s0.1,4.8,0.1,7.5c0.1,2.8,0.4,6,0.7,9.7l0.4,5.9l-6,0.4C692.7,452.8,692.3,452.8,691.9,452.8z"/>
</svg>
