<?xml version="1.0" encoding="utf-8"?>
<!-- Generator: Adobe Illustrator 18.0.0, SVG Export Plug-In . SVG Version: 6.00 Build 0)  -->
<!DOCTYPE svg PUBLIC "-//W3C//DTD SVG 1.1//EN" "http://www.w3.org/Graphics/SVG/1.1/DTD/svg11.dtd">
<svg version="1.1" id="Calque_1" xmlns="http://www.w3.org/2000/svg" xmlns:xlink="http://www.w3.org/1999/xlink" x="0px" y="0px"
	 viewBox="0 0 63.8 122.9" enable-background="new 0 0 63.8 122.9" xml:space="preserve">
<g>
	<path fill="#003865" d="M0,122.9c0-1.2,0-2.4,0-3.5c0.1,0.1,0.2,0,0.3-0.1c0.7-0.4,1.4-0.9,2.1-1.3c0.1,0,0.1-0.1,0.2-0.2
		c0-0.2,0-0.4,0-0.5c0-29.6,0-59.3,0-88.9c0-0.1,0-0.3,0-0.4c0-0.1,0-0.2-0.1-0.3c-0.9,0-1.7,0-2.6,0c0-2.8,0-5.5,0-8.3
		c0.4,0,0.9,0,1.3,0c0.4,0,0.9,0,1.3,0c0-0.2,0-0.3,0-0.5c0-1,0-1.9,0-2.9c0-0.1,0-0.3,0.1-0.4c0.1,0,0.3,0,0.4,0c0.5,0,0.9,0,1.4,0
		c0.1,0,0.2,0,0.3,0c0.1-0.2,0-0.3,0-0.5c0-1,0-1.9,0-2.9c0-0.1,0-0.3,0.1-0.5c1.3-0.2,2.6-0.4,3.9-0.6c1.3-0.2,2.6-0.4,3.9-0.6
		c1.3-0.2,2.6-0.4,3.9-0.6c1.3-0.2,2.6-0.4,3.9-0.6c1.3-0.2,2.6-0.4,3.9-0.6c1.3-0.2,2.6-0.4,3.9-0.6c0-0.1,0-0.3,0-0.4
		c0-0.4,0-0.8,0-1.2c0-0.1,0-0.2,0-0.3c0.4-0.1,0.8,0,1.2-0.1c0-0.4,0-0.8,0-1.2c0-0.4,0-0.8,0-1.3c0-0.4,0-0.8,0-1.2
		c0-0.4,0-0.8,0-1.2c0-0.1,0-0.1,0-0.1c0.7-0.4,1.4-0.9,2.2-1.3c0.1-0.1,0.2-0.1,0.3,0c0.2,0.1,0.4,0.2,0.5,0.3
		c0.6,0.3,1.1,0.7,1.7,1c0,0.3,0,0.7,0,1c0,0.3,0,0.7,0,1c0,0.3,0,0.7,0,1c0,0.3,0,0.7,0,1c0,0.3,0,0.7,0,1c0.1,0,0.2,0,0.3,0
		c0.2,0,0.4,0,0.6,0c0.1,0,0.2,0,0.3,0.1c0,0.3,0,0.6,0,0.9c0,0.3,0,0.6,0,0.9c2.6,0.4,5.2,0.8,7.8,1.2c2.6,0.4,5.2,0.8,7.8,1.2
		c2.6,0.4,5.2,0.8,7.8,1.2c0,0.2,0,0.3,0,0.4c0,1,0,1.9,0,2.9c0,0.1,0,0.3,0.1,0.5c0.1,0,0.3,0,0.4,0c0.5,0,1,0,1.5,0
		c0.1,0,0.2,0,0.3,0.1c0,0.2,0,0.3,0,0.5c0,0.9,0,1.9,0,2.8c0,0.1,0,0.3,0.1,0.4c0.1,0,0.3,0,0.4,0c0.6,0,1.1,0,1.7,0
		c0.1,0,0.2,0,0.3,0c0.1,0.2,0,0.3,0,0.5c0,2.4,0,4.8,0,7.1c0,0.1,0,0.2,0,0.3c0,0.1,0,0.2,0,0.2c-0.2,0-0.3,0-0.4,0
		c-0.6,0-1.1,0-1.7,0c-0.1,0-0.2,0-0.3,0.1c0,0.2,0,0.3,0,0.5c0,8.5,0,17.1,0,25.6c0,21.1,0,42.2,0,63.3c0,0.2,0,0.3,0,0.5
		c0,0.1,0,0.2,0.1,0.2c0.1,0,0.2,0.1,0.2,0.2c0.6,0.4,1.2,0.8,1.9,1.2c0.2,0.1,0.2,0.2,0.2,0.4c0,1,0,2,0,3c0,0.1,0,0.2-0.1,0.3
		c-0.2,0-0.4,0-0.6,0c-4.7,0-9.4,0-14.1,0c-16.1,0-32.3,0-48.4,0C0.4,123,0.2,122.9,0,122.9z M9.9,53.8c-0.1,0.2,0,0.4,0,0.5
		c0,5.5,0,11.1,0,16.6c0,0.1,0,0.2,0,0.3c0,0.1,0,0.2,0,0.3c0.2,0,0.4,0,0.5,0c4.5,0,9,0,13.4,0c0.1,0,0.2,0,0.3,0
		c0.1,0,0.2,0,0.3,0c0-0.2,0-0.4,0-0.5c0-5.5,0-11.1,0-16.6c0-0.1,0-0.2,0-0.3c0-0.1,0-0.2,0-0.2c-0.1,0-0.2,0-0.3,0
		C21.2,53.7,10.4,53.7,9.9,53.8z M4.2,26.7c0.2,0.1,0.4,0,0.6,0c18.2,0,36.5,0,54.7,0c0.1,0,0.2,0,0.4,0c0.1,0,0.2,0,0.2-0.1
		c0-0.1,0-0.2,0-0.2c0-1.9,0-3.9,0-5.8c0-0.1,0-0.2,0-0.3c-0.2-0.1-0.4,0-0.6,0c-18.2,0-36.4,0-54.6,0c-0.1,0-0.2,0-0.4,0
		c-0.1,0-0.2,0-0.2,0c-0.1,0.4-0.1,2.8-0.1,5.9C4.2,26.5,4.2,26.6,4.2,26.7z M31.2,30c-0.1,0.2,0,0.4,0,0.6c0,28.4,0,56.7,0,85.1
		c0,0.1,0,0.2,0,0.4c0,0.1,0,0.2,0.1,0.3c0.3,0,0.5,0,0.8,0c0.3,0,0.5,0.1,0.8-0.1c0-0.2,0-0.4,0-0.6c0-28.4,0-56.7,0-85.1
		c0-0.1,0-0.2,0-0.4c0-0.1,0-0.2,0-0.2C32.3,29.9,31.5,29.9,31.2,30z M55.3,97.5c-0.2,0-0.4,0-0.5,0c-5.2,0-10.5,0-15.7,0
		c-0.1,0-0.2,0-0.3,0c-0.1,0-0.2,0-0.2,0c-0.1,0.2,0,0.4,0,0.6c0,5.8,0,11.7,0,17.5c0,0.1,0,0.3,0,0.4c0,0.1,0,0.1,0.1,0.2
		c0.2,0,0.3,0,0.5,0c5.3,0,10.6,0,15.9,0c0.1,0,0.2,0,0.2,0c0.1,0,0.2,0,0.2-0.1c0-0.3,0.1-17.7,0-18.5
		C55.3,97.7,55.3,97.6,55.3,97.5z M38.5,93.7c0.3,0,16.1,0.1,16.6,0c0.1,0,0.1,0,0.2,0c0.1-0.2,0-0.3,0-0.5c0-5.9,0-11.8,0-17.7
		c0-0.1,0-0.2,0-0.2c0-0.1,0-0.2,0-0.2c-0.2-0.1-0.4,0-0.6,0c-5.2,0-10.4,0-15.6,0c-0.1,0-0.2,0-0.4,0c-0.1,0-0.2,0-0.2,0.1
		c0,0.1,0,0.1,0,0.2c0,6.1,0,12.2,0,18.3C38.5,93.6,38.5,93.7,38.5,93.7z M8.7,97.6c-0.1,0.2,0,0.4,0,0.6c0,5.8,0,11.7,0,17.5
		c0,0.1,0,0.2,0,0.4c0,0.1,0,0.2,0.1,0.2c0.2,0,0.4,0,0.5,0c5.2,0,10.4,0,15.6,0c0.1,0,0.2,0,0.4,0c0.1,0,0.2,0,0.2,0
		c0.1-0.2,0-0.4,0-0.5c0-5.9,0-11.7,0-17.6c0-0.1,0-0.2,0-0.3c0-0.1,0-0.2,0-0.2c-0.1,0-0.1,0-0.2,0c-5.5,0-11,0-16.5,0
		C8.8,97.5,8.7,97.6,8.7,97.6z M25.5,93.7c0.1-0.4,0.1-18.3,0-18.7c0,0-0.1,0-0.1,0c-5.5,0-11,0-16.5,0c-0.1,0-0.1,0-0.2,0
		c0,0.1,0,0.1,0,0.2c0,6.1,0,12.2,0,18.4c0,0.1,0,0.1,0,0.2c0.1,0,0.2,0,0.3,0C12.1,93.8,25,93.8,25.5,93.7z M55.3,52.5
		c-0.2-0.1-0.3,0-0.5,0c-5.2,0-10.5,0-15.7,0c-0.1,0-0.2,0-0.3,0c-0.1,0-0.2,0-0.2,0c0,0.1,0,0.1,0,0.2c0,6.1,0,12.2,0,18.4
		c0,0,0,0.1,0,0.1c0.2,0.1,0.3,0,0.5,0c5.3,0,10.6,0,15.8,0c0.1,0,0.2,0,0.2,0c0.1,0,0.2,0,0.2,0c0-0.1,0-0.1,0-0.2
		c0-6.1,0-12.2,0-18.4C55.3,52.6,55.3,52.6,55.3,52.5z M25.5,38.1c0-0.1,0-0.2,0-0.3c0-0.4,0-0.9,0-1.3c0-2,0-4,0-6
		c0-0.2,0-0.3,0-0.5c-0.1,0-0.1,0-0.2,0c-1.3,0-2.7,0-4,0c-0.1,0-0.1,0-0.2,0c-0.1,0.4-0.1,6.8,0,8c0,0.1,0,0.2,0,0.3
		c0.1,0,0.2,0,0.3,0c0.2,0,0.5,0,0.7,0c1,0,2,0,3,0C25.2,38.2,25.3,38.2,25.5,38.1z M55,38.2c0-0.2,0-0.3,0-0.5c0-1.3,0-2.5,0-3.8
		c0-1.2,0-2.3,0-3.5c0-0.1,0-0.3,0-0.4c-0.3-0.1-4-0.1-4.4,0c-0.1,0.2-0.1,0.3-0.1,0.5c0,2.3,0,4.6,0,6.8c0,0.2,0,0.4,0,0.6
		c0,0.1,0,0.2,0,0.2c0.1,0,0.1,0,0.2,0c1.4,0,2.7,0,4.1,0C54.9,38.2,54.9,38.2,55,38.2z M21.1,39.8c-0.1,0.2,0,0.3,0,0.5
		c0,2.4,0,4.8,0,7.2c0,0.1,0,0.2,0,0.3c0,0.1,0,0.2,0,0.3c0.1,0,0.3,0,0.4,0c1.2,0,2.4,0,3.6,0c0.1,0,0.3,0,0.4-0.1
		c0-0.1,0-0.3,0-0.4c0-1.4,0-2.8,0-4.1c0-1.1,0-2.1,0-3.2c0-0.1,0-0.3-0.1-0.4C25.1,39.7,21.4,39.7,21.1,39.8z M55,48
		c0-0.2,0-0.3,0-0.5c0-1.3,0-2.6,0-4c0-1.1,0-2.2,0-3.3c0-0.1,0-0.3,0-0.4c-0.3-0.1-4-0.1-4.4,0c-0.1,0.2-0.1,0.3-0.1,0.5
		c0,2.3,0,4.6,0,6.9c0,0.2,0,0.4,0,0.5c0,0.1,0,0.2,0,0.2c0.1,0,0.1,0,0.2,0c1.4,0,2.7,0,4.1,0C54.9,48,54.9,48,55,48z M9,29.9
		C8.9,30.1,9,30.3,9,30.5c0,2.4,0,4.8,0,7.2c0,0.1,0,0.2,0,0.3C9,38,9,38.1,9,38.2c0.3,0,3.6,0.1,4.2,0c0.1,0,0.1,0,0.2,0
		c0.1-0.2,0-0.3,0-0.5c0-2.4,0-4.8,0-7.2c0-0.1,0-0.2,0-0.3c0-0.1,0-0.2-0.1-0.2C11.9,29.9,10.5,29.9,9,29.9z M42.9,30
		c-0.1,0-0.1,0-0.2,0c-1.3,0-2.7,0-4,0c-0.1,0-0.1,0-0.2,0c0,0.2,0,0.3,0,0.5c0,2.4,0,4.9,0,7.3c0,0.1,0,0.2,0,0.2
		c0,0.1,0,0.2,0.1,0.2c0.1,0,0.1,0,0.1,0c1.3,0,2.7,0,4,0c0.1,0,0.2,0,0.2,0c0.1-0.4,0.1-5.7,0-7.9C43,30.2,42.9,30.1,42.9,30z
		 M13.4,48c0-0.2,0-0.3,0-0.5c0-1.4,0-2.9,0-4.3c0-1,0-2,0-3c0-0.1,0-0.3-0.1-0.4c-0.3-0.1-4-0.1-4.4,0C8.9,39.9,9,40.1,9,40.3
		c0,2.4,0,4.8,0,7.3c0,0.1,0,0.2,0,0.2c0,0.1,0,0.2,0,0.2c0.1,0,0.1,0,0.2,0c1.4,0,2.7,0,4.1,0C13.3,48,13.3,48,13.4,48z M42.9,39.8
		c-0.1,0-0.2,0-0.3,0c-1.3,0-2.6,0-3.9,0c-0.1,0-0.2,0-0.2,0c-0.1,0.2,0,0.3,0,0.5c0,2.4,0,4.8,0,7.2c0,0.1,0,0.2,0,0.3
		c0,0.1,0,0.2,0.1,0.2c0.1,0,0.1,0,0.2,0c1.3,0,2.6,0,4,0c0.1,0,0.2,0,0.2,0c0-0.1,0-0.1,0-0.1c0-2.6,0-5.3,0-7.9
		C43,39.9,42.9,39.9,42.9,39.8z M15,38.2c0.3,0.1,3.2,0.1,4.2,0c0.1,0,0.2,0,0.2,0c0.1-0.3,0.1-4.3,0-7.8c0-0.1,0-0.2,0-0.4
		c-0.1,0-0.2,0-0.2,0c-1.3,0-2.7,0-4,0c-0.1,0-0.2,0-0.2,0C15,30.4,15,37.8,15,38.2z M44.5,30c0,0.2,0,0.3,0,0.5c0,2.4,0,4.8,0,7.2
		c0,0.1,0,0.2,0,0.3c0,0.1,0,0.2,0,0.2c0.4,0.1,2.7,0.1,4.1,0.1c0.1,0,0.2,0,0.3,0c0-0.1,0-0.1,0-0.2c0-2.6,0-5.3,0-7.9
		c0,0,0-0.1,0-0.1c-0.1,0-0.2,0-0.2,0C47.3,29.9,44.9,29.9,44.5,30z M19.5,48c0-0.2,0-0.3,0-0.5c0-2.4,0-4.8,0-7.1
		c0-0.1,0-0.2,0-0.3c0-0.1,0-0.2,0-0.2c-0.4-0.1-2.8-0.1-4.2,0c-0.1,0-0.2,0-0.2,0c0,0.1,0,0.1,0,0.1c0,2.6,0,5.3,0,7.9
		c0,0.1,0,0.1,0,0.2c0.1,0,0.2,0,0.2,0C16.3,48.1,19.1,48.1,19.5,48z M44.6,48c0.4,0.1,2.7,0.1,4.1,0c0.1,0,0.2,0,0.3,0
		c0.1-0.3,0.1-4.3,0-7.8c0-0.1,0-0.2,0-0.4c-0.1,0-0.1,0-0.2,0c-1.3,0-2.7,0-4,0c-0.1,0-0.2,0-0.2,0C44.5,40.2,44.5,47.6,44.6,48z
		 M33.3,6.4c0-0.1,0-0.2,0-0.3c0-1.4,0-2.8,0-4.2c0-0.1,0-0.2,0-0.3c-0.3-0.1-0.6,0-0.8,0c-0.3,0-0.6,0-0.9,0c-0.3,0-0.5,0-0.8,0
		c0,0.1,0,0.2,0,0.3c0,1.4,0,2.8,0,4.2c0,0.1,0,0.2,0,0.3c0.3,0,1.9,0.1,2.3,0C33.1,6.4,33.2,6.4,33.3,6.4z"/>
	<path fill="#003865" d="M5.5,25.4c0,0,0-0.1,0-0.1c0-1.1,0-2.3,0-3.4c0-0.1,0-0.1,0-0.2c0.1,0,0.2,0,0.2,0c0.1,0,0.2,0,0.4,0
		c17.3,0,34.7,0,52,0c0.2,0,0.4,0,0.6,0c0,0.1,0,0.2,0,0.2c0,1.1,0,2.2,0,3.4c0,0,0,0.1,0,0.1c-0.1,0-0.2,0-0.3,0
		c-0.1,0-0.2,0-0.4,0c-17.3,0-34.7,0-52,0C6,25.5,5.7,25.5,5.5,25.4z"/>
	<path fill="#003865" d="M54,98.9C54,98.9,54,99,54,98.9c0,5.4,0,10.6,0,15.9c0,0.1,0,0.1,0,0.2c-0.1,0-0.2,0-0.2,0
		c-0.1,0-0.2,0-0.2,0c-4.4,0-8.8,0-13.2,0c-0.2,0-0.3,0-0.5,0c0,0,0,0,0-0.1c0,0,0,0,0,0c0-5.2,0-10.5,0-15.7c0-0.1,0-0.1,0-0.2
		c0,0,0,0,0,0c0,0,0,0,0,0c0,0,0,0,0,0c4.6,0,9.3,0,13.9,0C53.8,98.8,53.9,98.8,54,98.9C54,98.9,54,98.9,54,98.9z"/>
	<path fill="#003865" d="M54,92.4c-0.4,0.1-12.6,0.1-13.9,0c-0.1,0-0.2,0-0.3,0c0-0.1,0-0.2,0-0.2c0-0.1,0-0.2,0-0.2
		c0-5,0-10.1,0-15.1c0-0.1,0-0.3,0-0.5c0.1,0,0.2,0,0.3,0c0.1,0,0.2,0,0.3,0c4.4,0,8.8,0,13.2,0c0.2,0,0.3,0,0.5,0
		c0,0.1,0,0.2,0,0.3c0,0.1,0,0.2,0,0.3c0,5,0,10,0,15C54,92,54,92.2,54,92.4z"/>
	<path fill="#003865" d="M9.9,114.9c0-5.3,0-10.5,0-15.8c0-0.1,0-0.2,0-0.3c0.1,0,0.2,0,0.2,0c0.1,0,0.1,0,0.2,0c4.4,0,8.9,0,13.3,0
		c0.1,0,0.3,0,0.5,0c0,0.1,0,0.2,0,0.3c0,0.1,0,0.2,0,0.3c0,5,0,10,0,15c0,0.2,0,0.4,0,0.5c-0.1,0-0.2,0-0.3,0c-0.1,0-0.2,0-0.3,0
		c-4.4,0-8.8,0-13.2,0C10.3,115,10.2,115,9.9,114.9z"/>
	<path fill="#003865" d="M10,92.4c0-0.1,0-0.2,0-0.3c0-5.3,0-10.5,0-15.8c0.1,0,0.2,0,0.2,0c0.1,0,0.2,0,0.3,0c4.4,0,8.8,0,13.2,0
		c0.2,0,0.3,0,0.5,0c0,0.1,0,0.2,0,0.3c0,0.1,0,0.2,0,0.3c0,5,0,10,0,15c0,0.2,0,0.3,0,0.5c-0.1,0-0.2,0-0.2,0.1c-0.1,0-0.2,0-0.4,0
		c-4.3,0-8.7,0-13,0C10.4,92.4,10.2,92.4,10,92.4z"/>
	<path fill="#003865" d="M39.8,53.8c0.4-0.1,13.8-0.1,14.2,0c0,0.1,0,0.1,0,0.2c0,0.1,0,0.2,0,0.3c0,5,0,10,0,15c0,0.2,0,0.4,0,0.5
		c-0.1,0-0.2,0-0.2,0.1c-0.1,0-0.2,0-0.4,0c-4.3,0-8.7,0-13,0c-0.2,0-0.4,0-0.6,0c0-0.1,0-0.1,0-0.2c0-0.1,0-0.2,0-0.3
		c0-5,0-10,0-15C39.8,54.1,39.8,54,39.8,53.8z"/>
</g>
</svg>
